<?xml version="1.0" encoding="utf-8"?>
<!-- Generator: Adobe Illustrator 26.0.3, SVG Export Plug-In . SVG Version: 6.00 Build 0)  -->
<svg version="1.1" id="Layer_1" xmlns="http://www.w3.org/2000/svg" xmlns:xlink="http://www.w3.org/1999/xlink" x="0px" y="0px"
	 viewBox="0 0 763.7 314.4" style="enable-background:new 0 0 763.7 314.4;" xml:space="preserve">
<style type="text/css">
	.st0{fill:#1464F4;}
</style>
<polyline points="589.2,301.8 589.3,301.8 589.2,301.7 589.1,301.7 "/>
<g>
	<g>
		<polygon class="st0" points="389.7,178.5 414.3,135.9 438.9,93.2 463.6,50.6 488.2,8 438.9,8 414.3,50.6 389.7,93.2 365.1,135.9 
			340.5,178.5 315.9,221.2 291.2,263.8 266.6,306.4 315.9,306.4 340.5,263.8 365.1,221.2 		"/>
		<polygon class="st0" points="291.2,221.2 315.9,178.5 340.5,135.9 365.1,93.2 389.7,50.6 414.3,8 365.1,8 340.5,50.6 315.9,93.2 
			291.2,135.9 266.6,178.5 242,221.2 217.4,263.8 217.4,263.8 217.4,263.8 217.4,263.8 192.8,221.2 168.1,178.5 143.5,135.9 
			118.9,93.2 94.3,50.6 69.7,8 20.4,8 45,50.6 69.7,93.2 94.3,135.9 118.9,178.5 143.5,221.2 168.1,263.8 192.7,306.4 242,306.4 
			266.6,263.8 		"/>
		<path class="st0" d="M722.1,8h-12.3h-6.9h-42.3h-49.1h-0.1h-49.1h-35.5h-7.6c-3.7,0-6.9,1.9-8.8,4.7l-0.7,1.2l-21.2,36.7
			l-24.8,42.6l-24.6,42.6l-24.6,42.6l-24.7,42.8l-24.6,42.6l-5.4,9.4c-0.1,0.1,0,0-0.1,0.1l-1.3,2.3c-1.5,2.9-2.3,6.1-2.3,9.5
			c0,11.8,9.5,21.3,21.3,21.3h12.4h49.1h0.1h49.1h49.2h12.3h30.8c3.7,0,6.9-1.8,8.8-4.6l0,0l0.7-1.2l21.2-36.7l24.8-42.7l24.6-42.6
			l24.6-42.6l24.6-42.6l24.6-42.6l5.9-10.3c2-3.2,3.1-7,3.1-11.1C743.4,17.5,733.8,8,722.1,8z M660.5,93.2l-24.6,42.7l-24.6,42.6
			l-24.7,42.7L562,263.8h-49.2h-49.1h-0.1h-49.1l24.6-42.6l24.6-42.6l24.6-42.6l24.6-42.8l24.6-42.6h49.1h0.1h49.2h49.2L660.5,93.2z
			"/>
	</g>
</g>
</svg>
